<?xml version="1.0" encoding="utf-8"?>
<!-- Generator: Adobe Illustrator 22.0.1, SVG Export Plug-In . SVG Version: 6.00 Build 0)  -->
<svg version="1.1" id="Layer_1" xmlns="http://www.w3.org/2000/svg" xmlns:xlink="http://www.w3.org/1999/xlink" x="0px" y="0px"
	 viewBox="0 0 500 500" style="enable-background:new 0 0 500 500;" xml:space="preserve">
<style type="text/css">
	.st0{fill:#F7F7F7;stroke:#254660;stroke-width:4;stroke-linecap:round;stroke-linejoin:round;stroke-miterlimit:10;}
	.st1{fill:#9BD3F7;}
	.st2{fill:none;stroke:#CBE6ED;stroke-miterlimit:10;}
	.st3{opacity:0.78;}
	.st4{fill:none;stroke:#254660;stroke-width:4;stroke-linejoin:round;stroke-miterlimit:10;}
	.st5{fill:none;stroke:#9BD3F7;stroke-width:2;stroke-linecap:round;stroke-linejoin:round;stroke-miterlimit:10;}
</style>
<g id="Book_1_">
	<g id="Book">
		<g>
			<g>
				<path class="st0" d="M412.8,172.6c0,0-137.9-31.4-201.7,0v268.2h201.7V172.6z"/>
				<path class="st0" d="M211.1,172.6c0,0-10.9-28.9-103.1-15.8c-92.3,13.1-92.3,13.1-92.3,13.1v270.8h195.4V172.6z"/>
				<path class="st1" d="M211.1,438.6c0,0,28.6-28.9,199.5,0H211.1z"/>
				<path class="st1" d="M211.1,438.6c0,0-32.2-35.5-193.2,0H211.1z"/>
			</g>
		</g>
		<path class="st2" d="M210.7,441.2"/>
		<path class="st2" d="M211.1,167.6"/>
	</g>
	<g class="st3">
		<g>
			<path class="st1" d="M51.8,207.9c0,0,95.4-18.9,129.2,0v12.7c0,0-7.1-20.5-129.2-4.2V207.9z"/>
			<path class="st1" d="M51.8,229.1c0,0,95.4-18.9,129.2,0v12.7c0,0-7.1-20.5-129.2-4.2V229.1z"/>
			<path class="st1" d="M51.8,250.3c0,0,95.4-18.9,129.2,0V263c0,0-7.1-20.5-129.2-4.2V250.3z"/>
			<path class="st1" d="M51.8,267.8c0,0,95.4-18.9,129.2,0v47.4c0,0-7.1-19.4-129.2-3.2V267.8z"/>
		</g>
		<g>
			<path class="st1" d="M51.8,324.4c0,0,95.4-18.9,129.2,0v12.7c0,0-7.1-20.5-129.2-4.2V324.4z"/>
			<path class="st1" d="M51.8,345.6c0,0,95.4-18.9,129.2,0v12.7c0,0-7.1-20.5-129.2-4.2V345.6z"/>
			<path class="st1" d="M51.8,366.8c0,0,95.4-18.9,129.2,0v12.7c0,0-7.1-20.5-129.2-4.2V366.8z"/>
		</g>
	</g>
	<g class="st3">
		<g>
			<path class="st1" d="M376.6,263.6c0,0-95.4-18.9-129.2,0v12.7c0,0,7.1-20.5,129.2-4.2V263.6z"/>
			<path class="st1" d="M376.6,205.2c0,0-95.4-18.9-129.2,0v41.3c0,0,7.1-16.9,129.2-0.6V205.2z"/>
			<path class="st1" d="M376.6,284.8c0,0-95.4-18.9-129.2,0v12.7c0,0,7.1-20.5,129.2-4.2V284.8z"/>
			<path class="st1" d="M376.6,306c0,0-95.4-18.9-129.2,0v12.7c0,0,7.1-20.5,129.2-4.2V306z"/>
		</g>
		<g>
			<path class="st1" d="M376.6,327.1c0,0-95.4-18.9-129.2,0v12.7c0,0,7.1-20.5,129.2-4.2V327.1z"/>
			<path class="st1" d="M376.6,348.3c0,0-95.4-18.9-129.2,0V361c0,0,7.1-20.5,129.2-4.2V348.3z"/>
			<path class="st1" d="M376.6,369.5c0,0-95.4-18.9-129.2,0v12.7c0,0,7.1-20.5,129.2-4.2V369.5z"/>
		</g>
	</g>
	<g>
		<polyline class="st4" points="226.9,167 226.9,194.3 243.5,188.3 260.1,194.3 260.1,162.2 		"/>
		<polygon class="st1" points="233.7,167.1 233.7,182.5 243.8,178.4 253.8,182.4 253.4,163.3 		"/>
	</g>
	<g id="XO_xB4_s_4_">
		<g id="X_32_">
			<line class="st5" x1="260.8" y1="95.1" x2="236.8" y2="81.3"/>
			<line class="st5" x1="255.7" y1="76.2" x2="242" y2="100.2"/>
		</g>
		<g id="X_31_">
			<line class="st5" x1="216.8" y1="142.1" x2="229.7" y2="141.7"/>
			<line class="st5" x1="223.5" y1="148.3" x2="223.1" y2="135.4"/>
		</g>
		<g id="_x30__48_">
			<path class="st1" d="M165.4,88.2c2.5,0,5.1,0.9,7,2.8c4.2,3.9,4.4,10.4,0.5,14.6c-2,2.2-4.8,3.3-7.5,3.3c-2.5,0-5.1-0.9-7-2.8
				c-4.2-3.9-4.4-10.4-0.5-14.6C159.9,89.3,162.7,88.2,165.4,88.2 M165.4,86.2C165.4,86.2,165.4,86.2,165.4,86.2
				c-3.4,0-6.7,1.4-9,3.9c-4.6,5-4.4,12.8,0.6,17.4c2.3,2.1,5.3,3.3,8.4,3.3c3.4,0,6.7-1.4,9-3.9c2.2-2.4,3.4-5.5,3.3-8.8
				s-1.5-6.3-3.9-8.6C171.6,87.4,168.6,86.2,165.4,86.2L165.4,86.2z"/>
		</g>
		<g id="X_30_">
			<line class="st5" x1="317" y1="182.9" x2="339.2" y2="182.2"/>
			<line class="st5" x1="328.5" y1="193.6" x2="327.8" y2="171.5"/>
		</g>
		<g id="_x30__47_">
			<path class="st1" d="M333.7,127.6c1.9,0,3.7,0.9,4.7,2.6c1.7,2.6,0.9,6.1-1.7,7.7c-0.9,0.6-2,0.9-3,0.9c-1.9,0-3.7-0.9-4.7-2.6
				c-1.7-2.6-0.9-6.1,1.7-7.7C331.7,127.9,332.7,127.6,333.7,127.6 M333.7,125.6C333.7,125.6,333.7,125.6,333.7,125.6
				c-1.4,0-2.8,0.4-4.1,1.2c-1.7,1.1-2.9,2.8-3.4,4.8c-0.4,2-0.1,4,1,5.7c1.4,2.2,3.8,3.5,6.4,3.5c1.4,0,2.8-0.4,4.1-1.2
				c3.5-2.2,4.6-6.9,2.4-10.5C338.8,127,336.4,125.6,333.7,125.6L333.7,125.6z"/>
		</g>
		<g id="X_28_">
			<line class="st5" x1="374.9" y1="76.8" x2="350.9" y2="63.1"/>
			<line class="st5" x1="369.8" y1="57.9" x2="356" y2="81.9"/>
		</g>
		<g id="X_27_">
			<line class="st5" x1="384.3" y1="127.9" x2="397.2" y2="127.4"/>
			<line class="st5" x1="391" y1="134.1" x2="390.6" y2="121.2"/>
		</g>
		<g id="_x30__43_">
			<path class="st1" d="M475.2,148.3c2.5,0,5.1,0.9,7,2.8c4.2,3.9,4.4,10.4,0.5,14.6c-2,2.2-4.8,3.3-7.5,3.3c-2.5,0-5.1-0.9-7-2.8
				c-4.2-3.9-4.4-10.4-0.5-14.6C469.7,149.4,472.5,148.3,475.2,148.3 M475.2,146.3C475.2,146.3,475.2,146.3,475.2,146.3
				c-3.4,0-6.7,1.4-9,3.9c-2.2,2.4-3.4,5.5-3.3,8.8c0.1,3.3,1.5,6.3,3.9,8.6c2.3,2.1,5.3,3.3,8.4,3.3c3.4,0,6.7-1.4,9-3.9
				c2.2-2.4,3.4-5.5,3.3-8.8c-0.1-3.3-1.5-6.3-3.9-8.6C481.4,147.5,478.4,146.3,475.2,146.3L475.2,146.3z"/>
		</g>
	</g>
</g>
</svg>
