<?xml version="1.0" encoding="utf-8"?>
<!-- Generator: Adobe Illustrator 22.0.1, SVG Export Plug-In . SVG Version: 6.00 Build 0)  -->
<svg version="1.1" id="Layer_1" xmlns="http://www.w3.org/2000/svg" xmlns:xlink="http://www.w3.org/1999/xlink" x="0px" y="0px"
	 viewBox="0 0 500 500" style="enable-background:new 0 0 500 500;" xml:space="preserve">
<style type="text/css">
	.st0{fill:#F7F7F7;stroke:#254660;stroke-width:5;stroke-linecap:round;stroke-linejoin:round;stroke-miterlimit:10;}
	.st1{fill:#9BD3F7;}
	.st2{fill:#254660;}
	.st3{fill:none;stroke:#254660;stroke-width:10;stroke-linecap:round;stroke-linejoin:round;stroke-miterlimit:10;}
	.st4{fill:none;stroke:#9BD3F7;stroke-width:2;stroke-linecap:round;stroke-linejoin:round;stroke-miterlimit:10;}
</style>
<g id="Clock">
	<g id="Side">
		<circle class="st0" cx="244.3" cy="300.8" r="176.1"/>
		<circle class="st0" cx="244.3" cy="300.8" r="142"/>
		<circle class="st1" cx="247.3" cy="302.8" r="100.4"/>
	</g>
	<g id="Pointer">
		<circle class="st2" cx="244.3" cy="300.8" r="18.1"/>
		<line class="st3" x1="309.3" y1="300.8" x2="244.3" y2="300.8"/>
	</g>
	<g id="Points">
		<circle class="st2" cx="244.3" cy="401.2" r="11.5"/>
		<circle class="st2" cx="244.3" cy="200.3" r="11.5"/>
		<circle class="st2" cx="143.8" cy="300.8" r="11.5"/>
		<circle class="st2" cx="344.7" cy="300.8" r="11.5"/>
		<circle class="st2" cx="168.8" cy="367.4" r="11.5"/>
		<circle class="st2" cx="316.1" cy="370.8" r="11.5"/>
		<circle class="st2" cx="168.8" cy="231.6" r="11.5"/>
		<circle class="st2" cx="316.1" cy="231.6" r="11.5"/>
	</g>
	<g id="Ctrl">
		<g>
			<line class="st3" x1="221.8" y1="84.3" x2="270" y2="84.3"/>
			<line class="st3" x1="245.9" y1="121.7" x2="245.9" y2="84.3"/>
		</g>
		<g>
			<line class="st3" x1="76.4" y1="163.2" x2="103.4" y2="136.2"/>
			<line class="st3" x1="116.4" y1="176.1" x2="89.9" y2="149.7"/>
		</g>
		<g>
			<line class="st3" x1="413.3" y1="163.7" x2="386.3" y2="136.7"/>
			<line class="st3" x1="373.3" y1="176.6" x2="399.8" y2="150.2"/>
		</g>
	</g>
	<g id="XO_xB4_s_3_">
		<g id="X_24_">
			<line class="st4" x1="266.6" y1="38.8" x2="244.9" y2="26.4"/>
			<line class="st4" x1="261.9" y1="21.7" x2="249.5" y2="43.4"/>
		</g>
		<g id="X_23_">
			<line class="st4" x1="183.7" y1="103.2" x2="195.4" y2="102.8"/>
			<line class="st4" x1="189.8" y1="108.8" x2="189.4" y2="97.1"/>
		</g>
		<g id="_x30__37_">
			<path class="st1" d="M180.2,32.6c2.3,0,4.6,0.8,6.4,2.5c3.8,3.5,4,9.4,0.4,13.2c-1.8,2-4.3,3-6.8,3c-2.3,0-4.6-0.8-6.4-2.5
				c-3.8-3.5-4-9.4-0.4-13.2C175.3,33.6,177.7,32.6,180.2,32.6 M180.2,30.6C180.2,30.6,180.2,30.6,180.2,30.6
				c-3.1,0-6.1,1.3-8.3,3.6c-2.1,2.2-3.2,5.1-3.1,8.1c0.1,3,1.4,5.8,3.6,7.9c2.1,2,4.9,3.1,7.7,3.1c3.1,0,6.1-1.3,8.3-3.6
				c2.1-2.2,3.2-5.1,3.1-8.1c-0.1-3-1.4-5.8-3.6-7.9C185.9,31.7,183.1,30.6,180.2,30.6L180.2,30.6z"/>
		</g>
		<g id="X_19_">
			<line class="st4" x1="327.5" y1="131.9" x2="347.6" y2="131.2"/>
			<line class="st4" x1="337.9" y1="141.6" x2="337.2" y2="121.5"/>
		</g>
		<g id="_x30__36_">
			<path class="st1" d="M322.4,67.8c1.7,0,3.3,0.8,4.3,2.4c1.5,2.4,0.8,5.5-1.6,7c-0.8,0.5-1.8,0.8-2.7,0.8c-1.7,0-3.3-0.8-4.3-2.4
				c-1.5-2.4-0.8-5.5,1.6-7C320.6,68.1,321.5,67.8,322.4,67.8 M322.4,65.8C322.4,65.8,322.4,65.8,322.4,65.8c-1.3,0-2.6,0.4-3.8,1.1
				c-3.3,2.1-4.3,6.5-2.2,9.8c1.3,2.1,3.5,3.3,6,3.3c1.3,0,2.6-0.4,3.8-1.1c1.6-1,2.7-2.6,3.1-4.4s0.1-3.7-0.9-5.3
				C327.1,67,324.9,65.8,322.4,65.8L322.4,65.8z"/>
		</g>
		<g id="X_18_">
			<line class="st4" x1="69.5" y1="124.6" x2="47.9" y2="112.2"/>
			<line class="st4" x1="64.9" y1="107.6" x2="52.5" y2="129.3"/>
		</g>
		<g id="_x30__35_">
			<path class="st1" d="M130.5,99.8c2.3,0,4.6,0.8,6.4,2.5c3.8,3.5,4,9.4,0.4,13.2c-1.8,2-4.3,3-6.8,3c-2.3,0-4.6-0.8-6.4-2.5
				c-3.8-3.5-4-9.4-0.4-13.2C125.5,100.8,128,99.8,130.5,99.8 M130.5,97.8C130.5,97.8,130.5,97.8,130.5,97.8c-3.1,0-6.1,1.3-8.3,3.6
				c-2.1,2.2-3.2,5.1-3.1,8.1c0.1,3,1.4,5.8,3.6,7.9c2.1,2,4.9,3.1,7.7,3.1c3.1,0,6.1-1.3,8.3-3.6c2.1-2.2,3.2-5.1,3.1-8.1
				c-0.1-3-1.4-5.8-3.6-7.9C136.1,98.8,133.4,97.8,130.5,97.8L130.5,97.8z"/>
		</g>
		<g id="_x30__30_">
			<path class="st1" d="M50.7,180.9c2,0,3.9,0.7,5.4,2.2c3.2,3,3.4,8,0.4,11.3c-1.6,1.7-3.7,2.5-5.8,2.5c-2,0-3.9-0.7-5.4-2.2
				c-3.2-3-3.4-8-0.4-11.3C46.5,181.7,48.6,180.9,50.7,180.9 M50.7,178.9C50.7,178.9,50.7,178.9,50.7,178.9c-2.7,0-5.4,1.2-7.3,3.2
				c-1.8,1.9-2.8,4.5-2.7,7.1c0.1,2.7,1.2,5.1,3.1,6.9c1.9,1.7,4.3,2.7,6.8,2.7c2.7,0,5.4-1.1,7.3-3.2c1.8-1.9,2.8-4.5,2.7-7.1
				c-0.1-2.7-1.2-5.1-3.1-6.9C55.7,179.8,53.3,178.9,50.7,178.9L50.7,178.9z"/>
		</g>
		<g id="X_26_">
			<line class="st4" x1="459.6" y1="187.1" x2="437.9" y2="174.7"/>
			<line class="st4" x1="454.9" y1="170" x2="442.5" y2="191.7"/>
		</g>
		<g id="X_25_">
			<line class="st4" x1="387.7" y1="78.6" x2="399.4" y2="78.3"/>
			<line class="st4" x1="393.8" y1="84.3" x2="393.4" y2="72.6"/>
		</g>
		<g id="_x30__38_">
			<path class="st1" d="M429.7,99.8c2.3,0,4.6,0.8,6.4,2.5c3.8,3.5,4,9.4,0.4,13.2c-1.8,2-4.3,3-6.8,3c-2.3,0-4.6-0.8-6.4-2.5
				c-3.8-3.5-4-9.4-0.4-13.2C424.7,100.8,427.2,99.8,429.7,99.8 M429.7,97.8C429.7,97.8,429.7,97.8,429.7,97.8
				c-3.1,0-6.1,1.3-8.3,3.6c-2.1,2.2-3.2,5.1-3.1,8.1c0.1,3,1.4,5.8,3.6,7.9c2.1,2,4.9,3.1,7.7,3.1c3.1,0,6.1-1.3,8.3-3.6
				c4.3-4.6,4-11.7-0.5-16C435.3,98.8,432.6,97.8,429.7,97.8L429.7,97.8z"/>
		</g>
	</g>
</g>
</svg>
