<?xml version="1.0" encoding="utf-8"?>
<!-- Generator: Adobe Illustrator 22.0.1, SVG Export Plug-In . SVG Version: 6.00 Build 0)  -->
<svg version="1.1" id="Layer_1" xmlns="http://www.w3.org/2000/svg" xmlns:xlink="http://www.w3.org/1999/xlink" x="0px" y="0px"
	 viewBox="0 0 500 500" style="enable-background:new 0 0 500 500;" xml:space="preserve">
<style type="text/css">
	.st0{fill:#F7F7F7;stroke:#254660;stroke-width:5;stroke-miterlimit:10;}
	.st1{fill:#9BD3F7;}
	.st2{fill:none;stroke:#254660;stroke-width:5;stroke-miterlimit:10;}
	.st3{fill:none;stroke:#254660;stroke-width:2;stroke-miterlimit:10;}
</style>
<g id="Mac">
	<rect x="193.3" y="376.7" class="st0" width="114.2" height="54.9"/>
	<path class="st0" d="M495,76.3c0-9.8-8-17.8-17.8-17.8H23.6c-9.8,0-17.8,8-17.8,17.8v256.3H495V76.3z M471.9,310.6h-443V81h443
		V310.6z"/>
	<path class="st1" d="M493.6,80.5c0-9.6-7.9-17.3-17.6-17.3H28.4c-9.7,0-17.6,7.8-17.6,17.3v249.7h482.7V80.5z M470.8,308.9H33.7
		V85.2h437.1V308.9z"/>
	<path class="st2" d="M494.7,76.2c0-9.8-8-17.8-17.8-17.8H23.3c-9.8,0-17.8,8-17.8,17.8v256.3h489.2V76.2z M471.7,310.6h-443V81h443
		V310.6z"/>
	<path class="st0" d="M5.7,332.5v26.4c0,9.8,8,17.8,17.8,17.8h453.6c9.8,0,17.8-8,17.8-17.8v-26.4H5.7z"/>
	<rect x="169" y="431.6" class="st0" width="162.7" height="8.4"/>
	<path class="st3" d="M253.1,72.1c-1.2,0-2.2-0.6-2.2-1.3v-1.6c0-0.7,1-1.3,2.2-1.3s2.2,0.6,2.2,1.3v1.6
		C255.3,71.5,254.3,72.1,253.1,72.1z"/>
</g>
</svg>
