<?xml version="1.0" encoding="utf-8"?>
<!-- Generator: Adobe Illustrator 22.0.1, SVG Export Plug-In . SVG Version: 6.00 Build 0)  -->
<svg version="1.1" id="Layer_1" xmlns="http://www.w3.org/2000/svg" xmlns:xlink="http://www.w3.org/1999/xlink" x="0px" y="0px"
	 viewBox="0 0 500 500" style="enable-background:new 0 0 500 500;" xml:space="preserve">
<style type="text/css">
	.st0{opacity:0.6;}
	.st1{fill:#9BD3F7;}
	.st2{fill:#254660;}
	.st3{fill:none;stroke:#254660;stroke-width:2;stroke-miterlimit:10;}
	.st4{fill:#F7F7F7;stroke:#254660;stroke-width:4;stroke-miterlimit:10;}
	.st5{fill:#F7F7F7;}
	.st6{fill:none;stroke:#254660;stroke-width:4;stroke-linecap:round;stroke-linejoin:round;stroke-miterlimit:10;}
	.st7{fill:none;stroke:#9BD3F7;stroke-width:2;stroke-linecap:round;stroke-linejoin:round;stroke-miterlimit:10;}
</style>
<g id="Mobile">
	<g id="Phone">
		<g>
			<g class="st0">
				<g>
					<path class="st1" d="M298.6,313.4V43.7c1-17.3-19.9-18.9-19.9-18.9H223h-55.8c0,0-20.9,1.7-20.9,18.9v269.6
						c0,0-0.4,17.2,19.5,17.2H223h57.2C300.1,330.6,298.6,313.4,298.6,313.4z M291,94.2v199.2H155v-60.7V64h136V94.2z"/>
				</g>
			</g>
			<g>
				<path class="st2" d="M276.1,21.8c0,0,20.9,1.7,19.9,18.9v269.6c0,0,1.4,17.2-18.5,17.2l-57.2-1h-57.2c-0.6,0-1.1,0-1.6,0
					c-18.2,0-17.8-16.3-17.8-16.3V40.7c0-17.3,20.9-18.9,20.9-18.9h55.8H276.1 M152.4,290.5h136V91.2V61h-136v168.8V290.5
					 M276.1,18.8h-55.8h-55.8c-0.1,0-0.2,0-0.2,0c-0.2,0-5.9,0.5-11.5,3.3c-7.9,3.9-12.1,10.3-12.1,18.6v269.6c0,0.8,0,8.1,5.4,13.6
					c3.7,3.8,8.9,5.7,15.5,5.7c0.6,0,1.1,0,1.7,0h57.1l57.2,1c0,0,0,0,0.1,0c7.2,0,12.8-2.1,16.6-6.2c5.1-5.6,4.9-13,4.9-14.1V40.8
					c0.5-8.3-3.4-14.8-11.2-18.7c-5.6-2.8-11.2-3.3-11.4-3.3C276.3,18.8,276.2,18.8,276.1,18.8L276.1,18.8z M155.4,64h130v27.3
					v196.2h-130v-57.7V64L155.4,64z"/>
			</g>
			<path class="st3" d="M204.8,42.3c0-1.4,1.1-2.5,2.5-2.5H223c1.4,0,2.5,1.1,2.5,2.5c0,1.4-1.1,2.5-2.5,2.5h-15.7
				C205.9,44.8,204.8,43.7,204.8,42.3z M230.3,42.3c0-1.4,0.8-2.5,1.7-2.5h2.2c0.9,0,1.7,1.1,1.7,2.5c0,1.4-0.8,2.5-1.7,2.5H232
				C231.1,44.8,230.3,43.7,230.3,42.3z"/>
		</g>
	</g>
	<g id="Hand">
		<rect x="218.5" y="410.4" class="st1" width="140.9" height="74.6"/>
		<path class="st4" d="M230.7,430.8c-3,0-5.4-1.5-5.4-3.4V423c0-1.9,2.4-3.4,5.4-3.4s5.4,1.5,5.4,3.4v4.4
			C236.1,429.3,233.7,430.8,230.7,430.8z"/>
		<g>
			<path class="st5" d="M227,404.4c-1.1,0-2-0.9-2-1.9l-0.1-2l0-34c-3.4-1.9-12-8.9-23.7-35.1c-0.3-0.6-0.2-1.3,0.1-1.9
				s1-0.9,1.7-0.9h78.6c0.2,0,0.3,0,0.6,0c0.6,0,1.6,0.1,3.1,0.3c-16.8-20.4-26-81.7-27-88.8l-35.5-43.8c0,0-0.1-0.1-0.1-0.1
				c-9.4-13.4-6.7-23.2-4.2-27.9c3.5-6.6,10.6-10.9,18.3-10.9c4.9,0,9.6,1.7,13.5,5c0.1,0,0.1,0.1,0.1,0.1l47.9,49.5l-0.4-74.7
				c0-0.8,0.5-1.6,1.2-1.9c0.2-0.1,0.5-0.1,0.8-0.1c0.5,0,1.1,0.2,1.4,0.6c34.7,35.9,38.9,57.6,39,58.5l11.5,74c0,0.1,0,0.1,0,0.2
				c1.2,23-8.3,70.3-9.1,74.2v59.4c0,1.1-0.9,2-2,2C340.8,404.4,227,404.4,227,404.4z"/>
			<path class="st2" d="M299.9,137.4c34.7,35.8,38.5,57.5,38.5,57.5l11.5,74c1.2,23.6-9.1,73.9-9.1,73.9v53.7v5.9L227,402.4l-0.1-2
				v-35.2c0,0-9.4-2.2-23.8-34.6h78.8c0,0,0.1,0,0.4,0c0.9,0,3.7,0.3,11.4,2.4c-21.4-7.7-33.4-93.6-33.4-93.6l-35.9-44.2
				c-14.2-20.3-1.4-35.7,12.4-35.7c4.2,0,8.5,1.4,12.2,4.5l52.9,54.7l-1.6-5.1L299.9,137.4 M299.9,133.4c-0.5,0-1,0.1-1.5,0.3
				c-1.5,0.6-2.5,2.1-2.5,3.7l0.3,69.7l-44.4-45.9c-0.1-0.1-0.2-0.2-0.3-0.3c-4.2-3.6-9.3-5.5-14.7-5.5c-8.4,0-16.3,4.7-20.1,12
				c-2.6,5.1-5.6,15.7,4.4,30c0.1,0.1,0.1,0.2,0.2,0.2l35.2,43.3c0.7,4.7,3.7,23.7,8.6,43.3c5,19.6,10.3,33.6,16,42.3h-78
				c-1.4,0-2.6,0.7-3.4,1.8c-0.7,1.1-0.8,2.6-0.3,3.8c10.7,24.1,19.1,32.5,23.5,35.4v32.8c0,0,0,0.1,0,0.1l0.1,2
				c0.1,2.2,1.8,3.9,4,3.9c0,0,0,0,0,0l113.8-0.1c2.2,0,4-1.8,4-4v-5.9v-53.3c1-5.1,10.2-51.6,9.1-74.5c0-0.1,0-0.3,0-0.4l-11.5-74
				c0,0,0-0.1,0-0.1c-0.2-0.9-4.5-23.3-39.6-59.6C302,133.8,300.9,133.4,299.9,133.4L299.9,133.4z"/>
		</g>
		<polyline class="st6" points="353.9,480 353.9,405.4 213,405.4 213,480 		"/>
	</g>
	<g id="XO_xB4_s">
		<g id="X">
			<line class="st7" x1="283.7" y1="53" x2="277" y2="47.3"/>
			<line class="st7" x1="283.2" y1="46.8" x2="277.5" y2="53.5"/>
		</g>
		<g id="_x30_">
			<path class="st1" d="M267.1,21.4c3.6,0,6.7,2.8,7,6.5c0.3,3.9-2.6,7.3-6.5,7.6c-0.2,0-0.4,0-0.6,0c-3.6,0-6.7-2.8-7-6.5
				c-0.3-3.9,2.6-7.3,6.5-7.6C266.7,21.4,266.9,21.4,267.1,21.4 M267.1,19.4C267.1,19.4,267.1,19.4,267.1,19.4c-0.2,0-0.5,0-0.7,0
				c-5,0.4-8.7,4.8-8.3,9.8c0.4,4.7,4.3,8.3,9,8.3c0.2,0,0.5,0,0.7,0c2.4-0.2,4.6-1.3,6.2-3.2s2.3-4.2,2.1-6.6
				C275.8,23.1,271.8,19.4,267.1,19.4L267.1,19.4z"/>
		</g>
		<g id="X_1_">
			<line class="st7" x1="250.7" y1="52.1" x2="247.3" y2="37.3"/>
			<line class="st7" x1="256.4" y1="43" x2="241.6" y2="46.3"/>
		</g>
		<g id="_x30__1_">
			<path class="st1" d="M248.8,68.4c1.7,0,3.2,1.3,3.4,3.1c0.2,1.9-1.2,3.5-3.1,3.6c-0.1,0-0.2,0-0.3,0c-1.7,0-3.2-1.3-3.4-3.1
				c-0.2-1.9,1.2-3.5,3.1-3.6C248.7,68.5,248.8,68.4,248.8,68.4 M248.8,66.4c-0.1,0-0.3,0-0.4,0c-3,0.2-5.2,2.8-4.9,5.8
				c0.2,2.8,2.6,4.9,5.4,4.9c0.1,0,0.3,0,0.4,0c1.4-0.1,2.7-0.8,3.7-1.9c0.9-1.1,1.4-2.5,1.3-3.9C254,68.6,251.6,66.4,248.8,66.4
				L248.8,66.4z"/>
		</g>
		<g id="X_3_">
			<line class="st7" x1="237.7" y1="79.8" x2="233.2" y2="75.9"/>
			<line class="st7" x1="237.4" y1="75.6" x2="233.5" y2="80.1"/>
		</g>
		<g id="_x30__3_">
			<path class="st1" d="M223.4,56.3c3.6,0,6.7,2.8,7,6.5c0.3,3.9-2.6,7.3-6.5,7.6c-0.2,0-0.4,0-0.6,0c-3.6,0-6.7-2.8-7-6.5
				c-0.3-3.9,2.6-7.3,6.5-7.6C223,56.4,223.2,56.3,223.4,56.3 M223.4,54.3C223.4,54.3,223.4,54.3,223.4,54.3c-0.2,0-0.5,0-0.7,0
				c-5,0.4-8.7,4.8-8.3,9.8c0.4,4.7,4.3,8.3,9,8.3c0.2,0,0.5,0,0.7,0c5-0.4,8.7-4.8,8.3-9.8C232,58,228.1,54.3,223.4,54.3
				L223.4,54.3z"/>
		</g>
		<g id="X_2_">
			<line class="st7" x1="204.4" y1="82.2" x2="196.2" y2="69.3"/>
			<line class="st7" x1="206.7" y1="71.7" x2="193.9" y2="79.8"/>
		</g>
		<g id="_x30__2_">
			<path class="st1" d="M214.8,92c2.6,0,4.8,2,5,4.6c0.2,2.7-1.8,5.2-4.6,5.4c-0.1,0-0.3,0-0.4,0c-2.6,0-4.8-2-5-4.6
				c-0.2-2.7,1.8-5.2,4.6-5.4C214.5,92,214.7,92,214.8,92 M214.8,90c-0.2,0-0.4,0-0.6,0c-1.9,0.2-3.6,1-4.8,2.4
				c-1.2,1.4-1.8,3.2-1.6,5.1c0.3,3.6,3.4,6.4,7,6.4c0.2,0,0.4,0,0.6,0c1.9-0.2,3.6-1,4.8-2.4c1.2-1.4,1.8-3.2,1.6-5.1
				C221.5,92.8,218.4,90,214.8,90L214.8,90z"/>
		</g>
		<g id="X_5_">
			<line class="st7" x1="205.3" y1="119.5" x2="211.7" y2="122.6"/>
			<line class="st7" x1="206.9" y1="124.3" x2="210" y2="117.9"/>
		</g>
		<g id="_x30__5_">
			<path class="st1" d="M219.1,144.7c2.3,0,4.5,1.5,5.4,3.8c1,3-0.5,6.2-3.5,7.2c-0.6,0.2-1.2,0.3-1.9,0.3c-2.3,0-4.5-1.5-5.4-3.8
				c-1-3,0.5-6.2,3.5-7.2C217.9,144.8,218.5,144.7,219.1,144.7 M219.1,142.7c-0.9,0-1.7,0.1-2.5,0.4c-4,1.4-6.1,5.8-4.7,9.8
				c1.1,3.1,4,5.2,7.2,5.2c0.9,0,1.7-0.1,2.5-0.4c1.9-0.7,3.5-2.1,4.4-3.9c0.9-1.8,1-3.9,0.3-5.9
				C225.3,144.8,222.4,142.7,219.1,142.7L219.1,142.7z"/>
		</g>
		<g id="X_4_">
			<line class="st7" x1="233.1" y1="125.8" x2="244.1" y2="131.1"/>
			<line class="st7" x1="236" y1="133.9" x2="241.3" y2="122.9"/>
		</g>
		<g id="X_7_">
			<line class="st7" x1="283" y1="103.9" x2="278.9" y2="100.3"/>
			<line class="st7" x1="282.7" y1="100" x2="279.2" y2="104.2"/>
		</g>
		<g id="_x30__7_">
			<path class="st1" d="M278.7,73.9c2.3,0,4.2,1.7,4.3,4c0.2,2.4-1.6,4.5-4,4.7c-0.1,0-0.2,0-0.4,0c-2.3,0-4.2-1.7-4.3-4
				c-0.2-2.4,1.6-4.5,4-4.7C278.5,73.9,278.6,73.9,278.7,73.9 M278.7,71.9c-0.2,0-0.3,0-0.5,0c-3.5,0.3-6.1,3.4-5.8,6.9
				c0.3,3.3,3,5.9,6.3,5.9c0.2,0,0.3,0,0.5,0c3.5-0.3,6.1-3.4,5.8-6.9C284.8,74.4,282,71.9,278.7,71.9L278.7,71.9z"/>
		</g>
		<g id="X_6_">
			<line class="st7" x1="255" y1="100.8" x2="253.4" y2="91.6"/>
			<line class="st7" x1="258.8" y1="95.4" x2="249.6" y2="97.1"/>
		</g>
		<g id="_x30__6_">
			<path class="st1" d="M262.3,116.8c1.6,0,2.9,1.2,3.1,2.8c0.1,1.7-1.1,3.2-2.8,3.3c-0.1,0-0.2,0-0.3,0c-1.6,0-2.9-1.2-3.1-2.8
				c-0.1-1.7,1.1-3.2,2.8-3.3C262.1,116.8,262.2,116.8,262.3,116.8 M262.3,114.8c-0.1,0-0.3,0-0.4,0c-1.4,0.1-2.6,0.7-3.5,1.8
				c-0.9,1-1.3,2.4-1.2,3.7c0.2,2.6,2.4,4.7,5.1,4.7c0.1,0,0.3,0,0.4,0c1.4-0.1,2.6-0.7,3.5-1.8c0.9-1,1.3-2.4,1.2-3.7
				C267.2,116.9,264.9,114.8,262.3,114.8L262.3,114.8z"/>
		</g>
		<g id="X_10_">
			<line class="st7" x1="291.1" y1="19.3" x2="293.9" y2="14.5"/>
			<line class="st7" x1="294.9" y1="18.3" x2="290.1" y2="15.5"/>
		</g>
		<g id="X_9_">
			<line class="st7" x1="309.7" y1="52.3" x2="316.8" y2="49.8"/>
			<line class="st7" x1="314.7" y1="54.1" x2="311.8" y2="48"/>
		</g>
		<g id="_x30__16_">
			<path class="st1" d="M312,73.6c1,0,1.8,0.6,2.1,1.6c0.3,1.1-0.4,2.3-1.6,2.6c-0.2,0-0.3,0.1-0.5,0.1c-1,0-1.8-0.6-2.1-1.6
				c-0.3-1.1,0.4-2.3,1.6-2.6C311.7,73.6,311.8,73.6,312,73.6 M312,71.6c-0.3,0-0.7,0-1,0.1c-2.2,0.5-3.6,2.8-3,5
				c0.5,1.8,2.1,3.1,4,3.1c0.3,0,0.7,0,1-0.1c1.1-0.3,2-0.9,2.5-1.9c0.6-0.9,0.7-2.1,0.5-3.1C315.6,72.9,313.9,71.6,312,71.6
				L312,71.6z"/>
		</g>
		<g id="X_8_">
			<line class="st7" x1="296.2" y1="70.9" x2="298.1" y2="67.7"/>
			<line class="st7" x1="298.8" y1="70.3" x2="295.6" y2="68.3"/>
		</g>
		<g id="_x30__15_">
			<path class="st1" d="M301.3,35.8c2,0,3.8,1.4,4.3,3.4c0.6,2.4-0.9,4.8-3.2,5.4c-0.4,0.1-0.7,0.1-1.1,0.1c-2,0-3.8-1.4-4.3-3.4
				c-0.6-2.4,0.9-4.8,3.2-5.4C300.6,35.8,301,35.8,301.3,35.8 M301.3,33.8c-0.5,0-1,0.1-1.5,0.2c-1.7,0.4-3.1,1.5-4,2.9
				c-0.9,1.5-1.2,3.2-0.7,4.9c0.7,2.9,3.3,4.9,6.2,4.9c0.5,0,1-0.1,1.5-0.2c3.4-0.9,5.6-4.4,4.7-7.8
				C306.9,35.8,304.3,33.8,301.3,33.8L301.3,33.8z"/>
		</g>
		<g id="_x30__4_">
			<path class="st1" d="M301.3,93.4c1.2,0,2.4,0.8,2.7,2.1c0.4,1.5-0.5,3-2,3.3c-0.2,0.1-0.4,0.1-0.7,0.1c-1.2,0-2.4-0.8-2.7-2.1
				c-0.4-1.5,0.5-3,2-3.3C300.9,93.5,301.1,93.4,301.3,93.4 M301.3,91.4C301.3,91.4,301.3,91.4,301.3,91.4c-0.4,0-0.8,0-1.1,0.1
				c-1.2,0.3-2.3,1.1-2.9,2.2s-0.8,2.4-0.5,3.6c0.5,2.1,2.4,3.6,4.6,3.6c0.4,0,0.8,0,1.1-0.1c1.2-0.3,2.3-1.1,2.9-2.2
				s0.8-2.4,0.5-3.6C305.4,92.9,303.5,91.4,301.3,91.4L301.3,91.4z"/>
		</g>
		<g id="X_11_">
			<line class="st7" x1="321.9" y1="86.9" x2="334.3" y2="81.9"/>
			<line class="st7" x1="330.6" y1="90.6" x2="325.6" y2="78.2"/>
		</g>
		<g id="X_12_">
			<line class="st7" x1="318.9" y1="33.6" x2="324.3" y2="23.4"/>
			<line class="st7" x1="326" y1="31.6" x2="317.1" y2="25.5"/>
		</g>
	</g>
</g>
</svg>
