<?xml version="1.0" encoding="utf-8"?>
<!-- Generator: Adobe Illustrator 22.0.1, SVG Export Plug-In . SVG Version: 6.00 Build 0)  -->
<svg version="1.1" id="Layer_1" xmlns="http://www.w3.org/2000/svg" xmlns:xlink="http://www.w3.org/1999/xlink" x="0px" y="0px"
	 viewBox="0 0 500 500" style="enable-background:new 0 0 500 500;" xml:space="preserve">
<style type="text/css">
	.st0{fill:#F7F7F7;}
	.st1{fill:#254660;}
	.st2{fill:#F7F7F7;stroke:#254660;stroke-width:5;stroke-linecap:round;stroke-linejoin:round;stroke-miterlimit:10;}
	.st3{fill:#9BD3F7;}
	.st4{fill:none;stroke:#254660;stroke-width:5;stroke-linecap:round;stroke-linejoin:round;stroke-miterlimit:10;}
	.st5{fill:none;stroke:#254660;stroke-width:2;stroke-miterlimit:10;}
	.st6{fill:none;stroke:#9BD3F7;stroke-width:2;stroke-linecap:round;stroke-linejoin:round;stroke-miterlimit:10;}
</style>
<g id="Money">
	<g id="Pig">
		<g id="Shape">
			<g>
				<path class="st0" d="M246.3,456c-54.1,0-105-16.7-143.3-47.1c-38.5-30.5-59.6-71.1-59.6-114.3c0-13,2-26,5.8-38.5
					c10.6-34.5,35.9-65.8,71.1-88c36.2-22.8,79.7-34.9,126-34.9c111.9,0,202.9,72.4,202.9,161.4c0,43.2-21.2,83.8-59.6,114.3
					C351.2,439.2,300.4,456,246.3,456z"/>
				<path class="st1" d="M246.3,135.7c110.7,0,200.4,71.1,200.4,158.9c0,87.7-89.7,158.9-200.4,158.9S45.8,382.3,45.8,294.6
					c0-13,2-25.7,5.7-37.8C73,187.3,152,135.7,246.3,135.7 M246.3,130.7c-23.5,0-46.6,3.1-68.5,9.3c-21.3,6-41,14.7-58.8,25.9
					c-35.7,22.5-61.3,54.2-72.1,89.3c-3.9,12.8-5.9,26-5.9,39.3c0,22.3,5.5,43.9,16.3,64.2c10.4,19.5,25.3,37,44.3,52.1
					c38.7,30.7,90.2,47.6,144.8,47.6s106.1-16.9,144.8-47.6c18.9-15,33.8-32.5,44.3-52.1c10.8-20.3,16.3-41.9,16.3-64.2
					c0-22.3-5.5-43.9-16.3-64.2c-10.4-19.5-25.3-37-44.3-52.1C352.4,147.6,300.9,130.7,246.3,130.7L246.3,130.7z"/>
			</g>
			<polyline class="st2" points="55.2,256.6 5.5,256.6 5.5,331.7 76.7,331.7 			"/>
			<path class="st2" d="M448.5,287.7c-0.2,0,44.4-4.2,46.8-44.1"/>
			<polyline class="st2" points="102.7,191.4 102.7,114.7 159.6,159.1 			"/>
			<g>
				<path class="st0" d="M446.7,294.2c0,87.7-89.7,158.9-200.4,158.9S45.8,381.9,45.8,294.2c0-13,2-25.7,5.7-37.8
					C73,186.9,152,135.3,246.3,135.3C357,135.3,446.7,206.4,446.7,294.2z"/>
			</g>
			<polyline class="st2" points="121.2,388.2 121.2,487.6 184.3,487.6 184.3,426.5 			"/>
			<polyline class="st2" points="375.2,388.2 375.2,487.6 312.2,487.6 312.2,426.5 			"/>
			<line class="st2" x1="14.7" y1="331.7" x2="76.7" y2="331.7"/>
		</g>
		<g id="Eyes">
			<ellipse class="st2" cx="135.7" cy="243.3" rx="31" ry="29.2"/>
			<rect x="97.9" y="195.9" class="st0" width="84.1" height="47.4"/>
		</g>
		<g>
			<circle class="st0" cx="287.3" cy="143.6" r="62"/>
		</g>
		<g id="Coin_1_">
			<circle id="Coin_2_" class="st3" cx="290.2" cy="150.3" r="42"/>
			<circle id="Coin" class="st4" cx="287.3" cy="143.6" r="46.1"/>
			<path class="st0" d="M225.3,182.7c0,0,80.2-25.8,116.1,36.9H226.5L225.3,182.7z"/>
			<path class="st2" d="M226.5,173.6c0,0,55.6-18,114.9,22.3"/>
		</g>
	</g>
	<g id="Line">
		<path class="st5" d="M297.4,43.2c1.7,0,3.2,1.4,3.2,3.2v20c0,1.7-1.4,3.2-3.2,3.2s-3.2-1.4-3.2-3.2v-20
			C294.2,44.7,295.6,43.2,297.4,43.2z M297.4,75.7c1.7,0,3.2,1,3.2,2.2v2.7c0,1.2-1.4,2.2-3.2,2.2s-3.2-1-3.2-2.2v-2.7
			C294.2,76.7,295.6,75.7,297.4,75.7z"/>
		<path class="st5" d="M275.6,88.9c-1.7,0-3.2-1.4-3.2-3.2v-20c0-1.7,1.4-3.2,3.2-3.2c1.7,0,3.2,1.4,3.2,3.2v20
			C278.8,87.5,277.3,88.9,275.6,88.9z M275.6,56.4c-1.7,0-3.2-1-3.2-2.2v-2.7c0-1.2,1.4-2.2,3.2-2.2c1.7,0,3.2,1,3.2,2.2v2.7
			C278.8,55.5,277.3,56.4,275.6,56.4z"/>
	</g>
	<g id="XO_xB4_s_1_">
		<g id="X_22_">
			<line class="st6" x1="264.2" y1="38.2" x2="253.8" y2="21.9"/>
			<line class="st6" x1="267.2" y1="24.9" x2="250.8" y2="35.3"/>
		</g>
		<g id="X_21_">
			<line class="st6" x1="337.3" y1="73.8" x2="345.4" y2="77.7"/>
			<line class="st6" x1="339.4" y1="79.8" x2="343.3" y2="71.6"/>
		</g>
		<g id="_x30__25_">
			<path class="st3" d="M221.9,81.7c3,0,5.8,1.9,6.8,4.9c1.3,3.8-0.7,7.9-4.4,9.2c-0.8,0.3-1.6,0.4-2.4,0.4c-3,0-5.8-1.9-6.8-4.9
				c-1.3-3.8,0.7-7.9,4.4-9.2C220.3,81.8,221.1,81.7,221.9,81.7 M221.9,79.7C221.9,79.7,221.9,79.7,221.9,79.7c-1,0-2.1,0.2-3,0.5
				c-2.3,0.8-4.2,2.5-5.3,4.7c-1.1,2.2-1.2,4.7-0.4,7.1c1.3,3.7,4.8,6.2,8.7,6.2c1,0,2.1-0.2,3-0.5c4.8-1.7,7.4-6.9,5.7-11.8
				C229.3,82.2,225.8,79.7,221.9,79.7L221.9,79.7z"/>
		</g>
		<g id="X_20_">
			<line class="st6" x1="390.8" y1="56.5" x2="404.8" y2="63.3"/>
			<line class="st6" x1="394.4" y1="66.9" x2="401.2" y2="52.9"/>
		</g>
		<g id="_x30__23_">
			<path class="st3" d="M357.3,117.4c2,0,3.7,1.6,3.9,3.6c0.2,2.2-1.4,4.1-3.6,4.2c-0.1,0-0.2,0-0.3,0c-2,0-3.7-1.6-3.9-3.6
				c-0.2-2.2,1.4-4.1,3.6-4.2C357.1,117.4,357.2,117.4,357.3,117.4 M357.3,115.4c-0.2,0-0.3,0-0.5,0c-1.6,0.1-3,0.9-4,2.1
				c-1,1.2-1.5,2.7-1.4,4.3c0.2,3.1,2.8,5.5,5.9,5.5c0.2,0,0.3,0,0.5,0c1.6-0.1,3-0.9,4-2.1c1-1.2,1.5-2.7,1.4-4.3
				C363,117.8,360.4,115.4,357.3,115.4L357.3,115.4z"/>
		</g>
		<g id="X_13_">
			<line class="st6" x1="403" y1="151.8" x2="392.6" y2="135.5"/>
			<line class="st6" x1="406" y1="138.4" x2="389.7" y2="148.8"/>
		</g>
		<g id="_x30__17_">
			<path class="st3" d="M322,11.4c3,0,5.8,1.9,6.8,4.9c1.3,3.8-0.7,7.9-4.4,9.2c-0.8,0.3-1.6,0.4-2.4,0.4c-3,0-5.8-1.9-6.8-4.9
				c-1.3-3.8,0.7-7.9,4.4-9.2C320.5,11.5,321.3,11.4,322,11.4 M322,9.4c-1,0-2.1,0.2-3,0.5c-4.8,1.7-7.4,6.9-5.7,11.8
				c1.3,3.7,4.8,6.2,8.7,6.2c1,0,2.1-0.2,3-0.5c4.8-1.7,7.4-6.9,5.7-11.8C329.5,11.9,326,9.4,322,9.4L322,9.4z"/>
		</g>
	</g>
</g>
</svg>
