<?xml version="1.0" encoding="utf-8"?>
<!-- Generator: Adobe Illustrator 22.0.1, SVG Export Plug-In . SVG Version: 6.00 Build 0)  -->
<svg version="1.1" id="Layer_1" xmlns="http://www.w3.org/2000/svg" xmlns:xlink="http://www.w3.org/1999/xlink" x="0px" y="0px"
	 viewBox="0 0 500 500" style="enable-background:new 0 0 500 500;" xml:space="preserve">
<style type="text/css">
	.st0{fill:#F7F7F7;stroke:#254660;stroke-width:5;stroke-linecap:round;stroke-linejoin:round;stroke-miterlimit:10;}
	.st1{fill:#9BD3F7;}
	.st2{fill:#F7F7F7;}
	.st3{fill:none;stroke:#254660;stroke-width:12;stroke-linecap:round;stroke-linejoin:round;stroke-miterlimit:10;}
	.st4{fill:none;stroke:#9BD3F7;stroke-width:2;stroke-linecap:round;stroke-linejoin:round;stroke-miterlimit:10;}
</style>
<g id="Safe">
	<path class="st0" d="M250.5,487.8c131.1-18.3,189.9-143,189.9-143V135.1c-111.1,35.8-183.6-40-189.5-46.4
		c-5.6,6.1-78.1,82.3-189.5,46.4v209.8c0,0,58.8,124.7,189.9,143"/>
	<path class="st1" d="M250.6,440.6c100-13.9,144.9-109.1,144.9-109.1V171.3c-84.8,27.3-140.1-30.5-144.6-35.4
		c-4.3,4.7-59.6,62.8-144.6,35.4v160.1c0,0,44.9,95.2,144.9,109.1"/>
	<circle class="st2" cx="250.9" cy="288.2" r="89.3"/>
	<g id="Ok">
		<line class="st3" x1="211.1" y1="290.7" x2="245" y2="315.7"/>
		<line class="st3" x1="292.2" y1="253.6" x2="245" y2="315.7"/>
	</g>
	<g id="XO_xB4_s_2_">
		<g id="X_17_">
			<line class="st4" x1="326.5" y1="99.2" x2="313" y2="78.1"/>
			<line class="st4" x1="330.3" y1="81.9" x2="309.2" y2="95.3"/>
		</g>
		<g id="X_16_">
			<line class="st4" x1="112.6" y1="107.6" x2="123.1" y2="112.7"/>
			<line class="st4" x1="115.3" y1="115.4" x2="120.4" y2="104.9"/>
		</g>
		<g id="_x30__28_">
			<path class="st1" d="M282.8,10.7c3.9,0,7.5,2.4,8.8,6.3c1.7,4.9-0.9,10.2-5.7,11.9c-1,0.4-2.1,0.5-3.1,0.5
				c-3.9,0-7.5-2.4-8.8-6.3c-1.7-4.9,0.9-10.2,5.7-11.9C280.7,10.9,281.8,10.7,282.8,10.7 M282.8,8.7c-1.3,0-2.5,0.2-3.7,0.6
				c-5.9,2.1-9,8.5-7,14.4c1.6,4.5,5.9,7.6,10.7,7.6c1.3,0,2.5-0.2,3.7-0.6c2.9-1,5.2-3,6.5-5.8c1.3-2.7,1.5-5.8,0.5-8.7
				C291.9,11.7,287.6,8.7,282.8,8.7L282.8,8.7z"/>
		</g>
		<g id="X_15_">
			<line class="st4" x1="401.1" y1="105.8" x2="419.2" y2="114.5"/>
			<line class="st4" x1="405.7" y1="119.2" x2="414.5" y2="101.1"/>
		</g>
		<g id="_x30__27_">
			<path class="st1" d="M390.4,47.3c2.6,0,4.8,2,5.1,4.7c0.2,2.8-1.9,5.2-4.6,5.5c-0.1,0-0.3,0-0.4,0c-2.6,0-4.8-2-5.1-4.7
				c-0.2-2.8,1.9-5.2,4.6-5.5C390.2,47.3,390.3,47.3,390.4,47.3 M390.4,45.3C390.4,45.3,390.4,45.3,390.4,45.3c-0.2,0-0.4,0-0.6,0
				c-3.9,0.3-6.8,3.7-6.5,7.6c0.3,3.6,3.4,6.5,7,6.5c0.2,0,0.4,0,0.6,0c3.9-0.3,6.8-3.7,6.5-7.6C397.2,48.1,394.1,45.3,390.4,45.3
				L390.4,45.3z"/>
		</g>
		<g id="X_14_">
			<line class="st4" x1="213.8" y1="30.6" x2="200.3" y2="9.5"/>
			<line class="st4" x1="217.6" y1="13.3" x2="196.5" y2="26.8"/>
		</g>
		<g id="_x30__18_">
			<path class="st1" d="M183.3,79.3c3.9,0,7.5,2.4,8.8,6.3c1.7,4.9-0.9,10.2-5.7,11.9c-1,0.4-2.1,0.5-3.1,0.5
				c-3.9,0-7.5-2.4-8.8-6.3c-1.7-4.9,0.9-10.2,5.7-11.9C181.2,79.5,182.3,79.3,183.3,79.3 M183.3,77.3c-1.3,0-2.5,0.2-3.7,0.6
				c-5.9,2.1-9,8.5-7,14.4c1.6,4.5,5.9,7.6,10.7,7.6c1.3,0,2.5-0.2,3.7-0.6c2.9-1,5.2-3,6.5-5.8s1.5-5.8,0.5-8.7
				C192.4,80.3,188.1,77.3,183.3,77.3L183.3,77.3z"/>
		</g>
		<g id="_x30__29_">
			<path class="st1" d="M89.4,36.4c3.3,0,6.4,2.1,7.5,5.3c1.4,4.2-0.7,8.7-4.9,10.1c-0.9,0.3-1.8,0.4-2.6,0.4
				c-3.3,0-6.4-2.1-7.5-5.3c-1.4-4.2,0.7-8.7,4.9-10.1C87.7,36.6,88.6,36.4,89.4,36.4 M89.4,34.4C89.4,34.4,89.4,34.4,89.4,34.4
				c-1.1,0-2.2,0.2-3.3,0.6c-2.5,0.9-4.5,2.7-5.7,5.1c-1.2,2.4-1.3,5.1-0.4,7.6c1.4,4,5.2,6.7,9.4,6.7c1.1,0,2.2-0.2,3.3-0.6
				c5.2-1.8,7.9-7.5,6.1-12.7C97.5,37.1,93.7,34.4,89.4,34.4L89.4,34.4z"/>
		</g>
	</g>
</g>
</svg>
