<?xml version="1.0" encoding="utf-8"?>
<!-- Generator: Adobe Illustrator 22.0.1, SVG Export Plug-In . SVG Version: 6.00 Build 0)  -->
<svg version="1.1" id="Layer_1" xmlns="http://www.w3.org/2000/svg" xmlns:xlink="http://www.w3.org/1999/xlink" x="0px" y="0px"
	 viewBox="0 0 500 500" style="enable-background:new 0 0 500 500;" xml:space="preserve">
<style type="text/css">
	.st0{fill:none;stroke:#9BD3F7;stroke-width:2;stroke-linecap:round;stroke-linejoin:round;stroke-miterlimit:10;}
	.st1{fill:#9BD3F7;}
	.st2{fill:none;stroke:#9BD3F7;stroke-width:6;stroke-linecap:round;stroke-linejoin:round;stroke-miterlimit:10;}
	.st3{fill:#F7F7F7;stroke:#254660;stroke-width:5;stroke-miterlimit:10;}
	.st4{fill:none;stroke:#254660;stroke-width:5;stroke-miterlimit:10;}
</style>
<g id="Search">
	<g id="XO_xB4_s_5_">
		<g id="X_34_">
			<line class="st0" x1="159.2" y1="228.3" x2="170.5" y2="233.8"/>
			<line class="st0" x1="162.1" y1="236.7" x2="167.6" y2="225.4"/>
		</g>
		<g id="_x30__51_">
			<path class="st1" d="M338.8,249c9.3,0,18,5.8,21.2,15.1c4.1,11.7-2.1,24.6-13.8,28.6c-2.5,0.9-4.9,1.3-7.4,1.3
				c-9.3,0-18-5.8-21.2-15.1c-4.1-11.7,2.1-24.6,13.8-28.6C333.9,249.4,336.4,249,338.8,249 M338.8,242
				C338.8,242,338.8,242,338.8,242c-3.3,0-6.6,0.6-9.7,1.7c-15.4,5.4-23.5,22.2-18.1,37.6c4.1,11.8,15.3,19.8,27.8,19.8
				c3.3,0,6.6-0.6,9.7-1.7c15.4-5.4,23.5-22.2,18.1-37.6C362.5,250,351.4,242,338.8,242L338.8,242z"/>
		</g>
		<g id="X_33_">
			<line class="st0" x1="469.7" y1="226.4" x2="489.2" y2="235.8"/>
			<line class="st0" x1="474.8" y1="240.8" x2="484.2" y2="221.3"/>
		</g>
		<g id="_x30__49_">
			<path class="st1" d="M457.8,163c2.8,0,5.2,2.2,5.5,5.1c0.2,3-2,5.7-5,5.9c-0.2,0-0.3,0-0.4,0c-2.8,0-5.2-2.2-5.5-5.1
				c-0.2-3,2-5.7,5-5.9C457.5,163,457.7,163,457.8,163 M457.8,161C457.8,161,457.8,161,457.8,161c-0.2,0-0.4,0-0.6,0
				c-4.1,0.3-7.2,4-6.9,8.1c0.3,3.9,3.6,6.9,7.5,6.9c0.2,0,0.4,0,0.6,0c4.1-0.3,7.2-4,6.9-8.1C465,164,461.7,161,457.8,161
				L457.8,161z"/>
		</g>
		<g id="X_29_">
			<line class="st2" x1="361.3" y1="174.3" x2="326.5" y2="119.8"/>
			<line class="st2" x1="371.2" y1="129.6" x2="316.6" y2="164.4"/>
		</g>
		<g id="_x30__46_">
			<path class="st1" d="M242.3,164c9.5,0,18.4,5.9,21.7,15.4c4.2,12-2.2,25.1-14.1,29.3c-2.5,0.9-5.1,1.3-7.6,1.3
				c-9.5,0-18.4-5.9-21.7-15.4c-4.2-12,2.2-25.1,14.1-29.3C237.3,164.4,239.8,164,242.3,164 M242.3,158L242.3,158
				c-3.2,0-6.5,0.5-9.5,1.6c-7.3,2.5-13.2,7.8-16.6,14.8c-3.4,7-3.8,14.8-1.3,22.2C219,208.2,230,216,242.3,216
				c3.2,0,6.5-0.5,9.5-1.6c7.3-2.5,13.2-7.8,16.6-14.8c3.4-7,3.8-14.8,1.3-22.2C265.6,165.8,254.6,158,242.3,158L242.3,158z"/>
		</g>
		<g id="_x30__45_">
			<path class="st1" d="M133.8,152c3.5,0,6.8,2.2,8,5.7c1.5,4.4-0.8,9.3-5.2,10.8c-0.9,0.3-1.9,0.5-2.8,0.5c-3.5,0-6.8-2.2-8-5.7
				c-1.5-4.4,0.8-9.3,5.2-10.8C132,152.2,132.9,152,133.8,152 M133.8,150c-1.2,0-2.3,0.2-3.5,0.6c-2.6,0.9-4.8,2.8-6,5.3
				s-1.4,5.4-0.5,8c1.5,4.2,5.5,7,9.9,7c1.2,0,2.3-0.2,3.5-0.6c2.6-0.9,4.8-2.8,6-5.3c1.2-2.5,1.4-5.4,0.5-8
				C142.3,152.8,138.3,150,133.8,150L133.8,150z"/>
		</g>
		<g id="_x30__52_">
			<path class="st1" d="M349.3,295c4.1,0,8,2.6,9.4,6.7c1.8,5.2-0.9,10.9-6.1,12.7c-1.1,0.4-2.2,0.6-3.3,0.6c-4.1,0-8-2.6-9.4-6.7
				c-1.8-5.2,0.9-10.9,6.1-12.7C347.1,295.2,348.2,295,349.3,295 M349.3,293c-1.3,0-2.7,0.2-4,0.7c-6.2,2.2-9.6,9-7.4,15.3
				c1.7,4.8,6.2,8.1,11.3,8.1c1.3,0,2.7-0.2,4-0.7c6.2-2.2,9.6-9,7.4-15.3C359,296.2,354.4,293,349.3,293L349.3,293z"/>
		</g>
	</g>
	<g id="Grip">
		<path class="st3" d="M153.4,340.8l-23.7-24.5c-3-3.1-2.9-8.1,0.3-11l70.6-66.3c3.1-2.9,7.9-2.8,10.8,0.3l23.7,24.5
			c3,3.1,2.9,8.1-0.3,11l-70.6,66.3C161.2,344,156.3,343.9,153.4,340.8z"/>
		<path class="st3" d="M148.3,345.6l-23.7-24.5c-3-3.1-2.9-8.1,0.3-11l70.6-66.3c3.1-2.9,7.9-2.8,10.8,0.3l23.7,24.5
			c3,3.1,2.9,8.1-0.3,11l-70.6,66.3C156.1,348.7,151.2,348.6,148.3,345.6z"/>
		<path class="st3" d="M180.1,338.5l-114,107.8c-4.8,4.5-12.4,4.3-17-0.5L19,414c-4.5-4.8-4.3-12.4,0.5-17l114-107.8
			c4.8-4.5,12.4-4.3,17,0.5l30.1,31.9C185.1,326.3,184.9,334,180.1,338.5z"/>
		<polygon class="st1" points="125.4,390.1 85.1,428 23.3,392.6 56.9,361 		"/>
		<polygon class="st1" points="81.5,338.1 121.8,300.2 183.6,335.6 150,367.2 		"/>
		<path class="st4" d="M179.1,339.7l-114,107.8c-4.8,4.5-12.4,4.3-17-0.5l-30.1-31.9c-4.5-4.8-4.3-12.4,0.5-17l114-107.8
			c4.8-4.5,12.4-4.3,17,0.5l30.1,31.9C184.1,327.5,183.9,335.1,179.1,339.7z"/>
	</g>
	<g id="Lens">
		<path class="st1" d="M407.1,87.4c-51.5-53-137-55-190.9-4.3c-54,50.7-55.9,134.7-4.4,187.8c51.5,53,137,55,190.9,4.3
			C456.6,224.5,458.6,140.5,407.1,87.4z M281.1,284.9c-58.4-15.6-93.1-75.6-77.5-134c15.6-58.4,75.6-93.1,134-77.5
			c58.4,15.6,93.1,75.6,77.5,134C399.5,265.8,339.5,300.5,281.1,284.9z"/>
		<path class="st4" d="M402.8,83.1c-51.5-53-137-55-190.9-4.3c-54,50.7-55.9,134.7-4.4,187.8c51.5,53,137,55,190.9,4.3
			C452.3,220.2,454.3,136.2,402.8,83.1z M276.8,280.6c-58.4-15.6-93.1-75.6-77.5-134c15.6-58.4,75.6-93.1,134-77.5
			c58.4,15.6,93.1,75.6,77.5,134C395.2,261.5,335.2,296.2,276.8,280.6z"/>
	</g>
</g>
</svg>
